<?xml version="1.0" encoding="UTF-8" standalone="no"?>
<!-- Created with Inkscape (http://www.inkscape.org/) -->

<svg
   xmlns:dc="http://purl.org/dc/elements/1.1/"
   xmlns:cc="http://creativecommons.org/ns#"
   xmlns:rdf="http://www.w3.org/1999/02/22-rdf-syntax-ns#"
   xmlns:svg="http://www.w3.org/2000/svg"
   xmlns="http://www.w3.org/2000/svg"
   xmlns:sodipodi="http://sodipodi.sourceforge.net/DTD/sodipodi-0.dtd"
   xmlns:inkscape="http://www.inkscape.org/namespaces/inkscape"
   width="744.09448819"
   height="1052.3622047"
   id="svg2"
   version="1.1"
   inkscape:version="0.48.3.1 r9886"
   sodipodi:docname="settings.svg">
  <defs
     id="defs4" />
  <sodipodi:namedview
     id="base"
     pagecolor="#ffffff"
     bordercolor="#666666"
     borderopacity="1.0"
     inkscape:pageopacity="0.0"
     inkscape:pageshadow="2"
     inkscape:zoom="1.0952853"
     inkscape:cx="212.48527"
     inkscape:cy="493.12253"
     inkscape:document-units="px"
     inkscape:current-layer="layer1"
     showgrid="false"
     inkscape:window-width="1400"
     inkscape:window-height="1026"
     inkscape:window-x="0"
     inkscape:window-y="24"
     inkscape:window-maximized="1" />
  <metadata
     id="metadata7">
    <rdf:RDF>
      <cc:Work
         rdf:about="">
        <dc:format>image/svg+xml</dc:format>
        <dc:type
           rdf:resource="http://purl.org/dc/dcmitype/StillImage" />
        <dc:title></dc:title>
      </cc:Work>
    </rdf:RDF>
  </metadata>
  <g
     inkscape:label="Layer 1"
     inkscape:groupmode="layer"
     id="layer1">
    <path
       style="color:#000000;fill:#a6a6a6;fill-opacity:1;fill-rule:nonzero;stroke:none;stroke-width:1;marker:none;visibility:visible;display:inline;overflow:visible;enable-background:accumulate"
       d="M 200.875 290.125 C 196.028 290.125 191.655 292.18053 188.59375 295.46875 L 213.125 295.46875 C 210.06401 292.18384 205.71921 290.125 200.875 290.125 z M 213.125 295.46875 C 215.9155 298.46339 217.625 302.4901 217.625 306.90625 C 217.625 311.3224 215.9155 315.31786 213.125 318.3125 L 377.0625 318.3125 L 377.0625 295.46875 L 213.125 295.46875 z M 213.125 318.3125 L 188.59375 318.3125 C 191.655 321.60072 196.028 323.65625 200.875 323.65625 C 205.71921 323.65625 210.06401 321.59741 213.125 318.3125 z M 188.59375 318.3125 C 185.80637 315.31846 184.09375 311.31961 184.09375 306.90625 C 184.09375 302.49289 185.80637 298.46279 188.59375 295.46875 L 165.25 295.46875 L 165.25 318.3125 L 188.59375 318.3125 z "
       id="rect2985"
       inkscape:export-filename="/var/www/domains/mochaui/settins.png"
       inkscape:export-xdpi="20.6"
       inkscape:export-ydpi="20.6" />
    <path
       style="color:#000000;fill:#a6a6a6;fill-opacity:1;fill-rule:nonzero;stroke:none;stroke-width:1;marker:none;visibility:visible;display:inline;overflow:visible;enable-background:accumulate"
       d="M 325.9375 324.40625 C 321.09329 324.40625 316.74849 326.49634 313.6875 329.78125 L 338.21875 329.78125 C 335.1575 326.49303 330.7845 324.40625 325.9375 324.40625 z M 338.21875 329.78125 C 341.00613 332.77529 342.71875 336.77414 342.71875 341.1875 C 342.71875 345.60086 341.00613 349.59971 338.21875 352.59375 L 377.0625 352.59375 L 377.0625 329.78125 L 338.21875 329.78125 z M 338.21875 352.59375 L 313.6875 352.59375 C 316.74849 355.87866 321.09329 357.96875 325.9375 357.96875 C 330.7845 357.96875 335.1575 355.88197 338.21875 352.59375 z M 313.6875 352.59375 C 310.897 349.59911 309.1875 345.60365 309.1875 341.1875 C 309.1875 336.77135 310.897 332.77589 313.6875 329.78125 L 165.25 329.78125 L 165.25 352.59375 L 313.6875 352.59375 z "
       id="rect2985-7"
       inkscape:export-filename="/var/www/domains/mochaui/settins.png"
       inkscape:export-xdpi="20.6"
       inkscape:export-ydpi="20.6" />
    <path
       style="color:#000000;fill:#a6a6a6;fill-opacity:1;fill-rule:nonzero;stroke:none;stroke-width:1;marker:none;visibility:visible;display:inline;overflow:visible;enable-background:accumulate"
       d="M 244.6875 359.375 C 239.84329 359.375 235.49849 361.43384 232.4375 364.71875 L 256.9375 364.71875 C 253.87651 361.43384 249.53171 359.375 244.6875 359.375 z M 256.9375 364.71875 C 259.728 367.71339 261.4375 371.70885 261.4375 376.125 C 261.4375 380.53598 259.7222 384.53773 256.9375 387.53125 L 377.0625 387.53125 L 377.0625 364.71875 L 256.9375 364.71875 z M 256.9375 387.53125 L 232.4375 387.53125 C 235.49897 390.8223 239.83812 392.90625 244.6875 392.90625 C 249.53688 392.90625 253.87603 390.8223 256.9375 387.53125 z M 232.4375 387.53125 C 229.6528 384.53773 227.90625 380.53598 227.90625 376.125 C 227.90625 371.70885 229.647 367.71339 232.4375 364.71875 L 165.25 364.71875 L 165.25 387.53125 L 232.4375 387.53125 z "
       id="rect2985-1"
       inkscape:export-filename="/var/www/domains/mochaui/settins.png"
       inkscape:export-xdpi="20.6"
       inkscape:export-ydpi="20.6" />
    <path
       sodipodi:type="arc"
       style="color:#000000;fill:none;stroke:#a6a6a6;stroke-width:15.89999962;stroke-miterlimit:4;stroke-opacity:1;stroke-dasharray:none;marker:none;visibility:visible;display:inline;overflow:visible;enable-background:accumulate"
       id="path3782"
       sodipodi:cx="169.81876"
       sodipodi:cy="507.75525"
       sodipodi:rx="27.454718"
       sodipodi:ry="27.454718"
       d="m 197.27347,507.75525 a 27.454718,27.454718 0 1 1 -54.90943,0 27.454718,27.454718 0 1 1 54.90943,0 z"
       transform="matrix(0.61072823,0,0,0.61072823,97.147788,-3.2061305)"
       inkscape:export-filename="/var/www/domains/mochaui/settins.png"
       inkscape:export-xdpi="20.6"
       inkscape:export-ydpi="20.6" />
    <path
       sodipodi:type="arc"
       style="color:#000000;fill:none;stroke:#a6a6a6;stroke-width:15.89999962;stroke-miterlimit:4;stroke-opacity:1;stroke-dasharray:none;marker:none;visibility:visible;display:inline;overflow:visible;enable-background:accumulate"
       id="path3782-1"
       sodipodi:cx="169.81876"
       sodipodi:cy="507.75525"
       sodipodi:rx="27.454718"
       sodipodi:ry="27.454718"
       d="m 197.27347,507.75525 a 27.454718,27.454718 0 1 1 -54.90943,0 27.454718,27.454718 0 1 1 54.90943,0 z"
       transform="matrix(0.61072823,0,0,0.61072823,222.22935,31.086958)"
       inkscape:export-filename="/var/www/domains/mochaui/settins.png"
       inkscape:export-xdpi="20.6"
       inkscape:export-ydpi="20.6" />
    <path
       sodipodi:type="arc"
       style="color:#000000;fill:none;stroke:#a6a6a6;stroke-width:15.89999962;stroke-miterlimit:4;stroke-opacity:1;stroke-dasharray:none;marker:none;visibility:visible;display:inline;overflow:visible;enable-background:accumulate"
       id="path3782-9"
       sodipodi:cx="169.81876"
       sodipodi:cy="507.75525"
       sodipodi:rx="27.454718"
       sodipodi:ry="27.454718"
       d="m 197.27347,507.75525 a 27.454718,27.454718 0 1 1 -54.90943,0 27.454718,27.454718 0 1 1 54.90943,0 z"
       transform="matrix(0.61072823,0,0,0.61072823,140.97199,66.030623)"
       inkscape:export-filename="/var/www/domains/mochaui/settins.png"
       inkscape:export-xdpi="20.6"
       inkscape:export-ydpi="20.6" />
  </g>
</svg>
